<?xml version="1.0" encoding="UTF-8"?><svg id="Layer_1" xmlns="http://www.w3.org/2000/svg" viewBox="0 0 48 48"><path d="M20.01,22.5c-1.21,0-2.16,1.08-2.16,2.41s.98,2.4,2.16,2.4,2.14-1.07,2.16-2.4c.02-1.32-.95-2.41-2.16-2.41Z" fill="#3778fa"/><path d="M27.99,22.5c-1.22,0-2.16,1.08-2.16,2.41s.97,2.4,2.16,2.4,2.14-1.07,2.16-2.4c.02-1.32-.94-2.41-2.16-2.41Z" fill="#3778fa"/><path d="M0,0V48H48V0H0ZM35.9,30.05c-1.84,1.36-3.89,2.39-6.08,3.05-.49-.66-.93-1.36-1.3-2.1,.71-.27,1.4-.59,2.05-.98-.17-.11-.34-.24-.5-.38-3.85,1.81-8.3,1.81-12.14,0-.16,.12-.33,.25-.5,.38,.65,.39,1.34,.71,2.05,.98-.37,.73-.81,1.44-1.3,2.1-2.18-.66-4.24-1.69-6.07-3.05-.42-4.46,.42-8.98,3.56-13.61,1.58-.72,3.24-1.24,4.96-1.53,.23,.42,.45,.85,.63,1.29,1.82-.27,3.67-.27,5.49,0,.19-.44,.4-.87,.63-1.29,1.71,.29,3.37,.8,4.95,1.52,2.72,3.97,4.07,8.45,3.57,13.62Z" fill="#3778fa"/></svg>