<?xml version="1.0" encoding="UTF-8"?><svg id="Layer_1" xmlns="http://www.w3.org/2000/svg" viewBox="0 0 48 48"><path d="M0,0V48H48V0H0ZM27.8,35.68c-.61,.12-.8-.26-.8-.58v-3.29c0-1.12-.39-1.85-.82-2.22,2.67-.3,5.48-1.31,5.48-5.92,0-1.31-.47-2.38-1.23-3.22,.12-.3,.53-1.52-.12-3.18,0,0-1.01-.32-3.3,1.23-.96-.27-1.99-.4-3.01-.4-1.02,0-2.05,.14-3,.4-2.29-1.55-3.3-1.23-3.3-1.23-.65,1.65-.24,2.87-.12,3.18-.77,.84-1.24,1.91-1.24,3.22,0,4.6,2.8,5.63,5.47,5.93-.34,.3-.65,.83-.76,1.6-.68,.31-2.42,.84-3.49-1,0,0-.63-1.15-1.84-1.24,0,0-1.17-.02-.08,.73,0,0,.79,.37,1.33,1.76,0,0,.7,2.14,4.03,1.42v2.23c0,.32-.19,.69-.79,.58-4.77-1.59-8.21-6.08-8.21-11.39,0-6.63,5.37-12,12-12s12,5.37,12,12c0,5.3-3.43,9.8-8.2,11.39Z" fill="#3778fa"/></svg>