<?xml version="1.0" encoding="UTF-8"?><svg id="Layer_1" xmlns="http://www.w3.org/2000/svg" viewBox="0 0 48 48"><path d="M24,0C10.75,0,0,10.75,0,24s10.75,24,24,24,24-10.75,24-24S37.25,0,24,0Zm0,46c-12.13,0-22-9.87-22-22S11.87,2,24,2s22,9.87,22,22-9.87,22-22,22Z" fill="#497efe"/><path d="M32,23H16c-.55,0-1,.45-1,1s.45,1,1,1h16c.55,0,1-.45,1-1s-.45-1-1-1Z" fill="#497efe"/><path d="M32,15H16c-.55,0-1,.45-1,1s.45,1,1,1h16c.55,0,1-.45,1-1s-.45-1-1-1Z" fill="#497efe"/><path d="M32,31H16c-.55,0-1,.45-1,1s.45,1,1,1h16c.55,0,1-.45,1-1s-.45-1-1-1Z" fill="#497efe"/></svg>