<?xml version="1.0" encoding="UTF-8"?><svg id="Layer_1" xmlns="http://www.w3.org/2000/svg" viewBox="0 0 48 48"><path d="M0,0V48H48V0H0ZM33.54,19.11c0,.21,.01,.42,.01,.64,0,6.51-4.95,14.01-14.01,14.01-2.78,0-5.37-.82-7.55-2.21,.39,.05,.78,.07,1.17,.07,2.31,0,4.43-.79,6.12-2.11-2.16-.04-3.97-1.46-4.6-3.42,.3,.06,.61,.09,.93,.09,.45,0,.88-.06,1.3-.17-2.25-.45-3.95-2.44-3.95-4.83,0-.02,0-.04,0-.06,.66,.37,1.42,.59,2.23,.62-1.32-.88-2.19-2.39-2.19-4.1,0-.9,.24-1.75,.67-2.47,2.43,2.98,6.06,4.94,10.15,5.14-.08-.36-.13-.74-.13-1.12,0-2.72,2.21-4.92,4.92-4.92,1.42,0,2.7,.6,3.59,1.56,1.12-.22,2.17-.63,3.13-1.2-.37,1.15-1.15,2.11-2.17,2.72,1-.12,1.95-.38,2.83-.78-.66,.99-1.5,1.85-2.46,2.55Z" fill="#3778fa"/></svg>